<?xml version="1.0" encoding="UTF-8"?>
<svg id="Layer_1" data-name="Layer 1" xmlns="http://www.w3.org/2000/svg" version="1.1" xmlns:xlink="http://www.w3.org/1999/xlink" viewBox="0 0 1674.2 956.8">
  <defs>
    <style>
      .cls-1 {
        fill: none;
      }

      .cls-1, .cls-2, .cls-3 {
        stroke-width: 0px;
      }

      .cls-2 {
        fill: url(#linear-gradient);
        fill-rule: evenodd;
      }

      .cls-3 {
        fill: url(#linear-gradient-2);
      }

      .cls-4 {
        clip-path: url(#clippath);
      }
    </style>
    <clipPath id="clippath">
      <rect class="cls-1" x="-9.8" y="0" width="1674.2" height="956.8"/>
    </clipPath>
    <linearGradient id="linear-gradient" x1="287.4" y1="294.4" x2="1607.7" y2="403.2" gradientTransform="translate(0 114)" gradientUnits="userSpaceOnUse">
      <stop offset="0" stop-color="#fc361a"/>
      <stop offset="1" stop-color="#fc361a"/>
    </linearGradient>
    <linearGradient id="linear-gradient-2" x1="265" y1="567.1" x2="1585.3" y2="675.9" gradientTransform="translate(0 114)" gradientUnits="userSpaceOnUse">
      <stop offset="0" stop-color="#fc361a"/>
      <stop offset="1" stop-color="#fc361a"/>
    </linearGradient>
  </defs>
  <g class="cls-4">
    <g id="Group_1" data-name="Group 1">
      <g id="Group_1-2" data-name="Group 1-2">
        <path id="CompoundPath_1" data-name="CompoundPath 1" class="cls-2" d="M843.3,2.1c-2.2,1.1-7.6,4.1-11.9,6.5-13.8,7.6-15.1,8.4-25.2,13.7-5.4,2.9-12.3,6.6-15.2,8.3-2.9,1.7-22.9,12.4-24.3,13.2-1.4.8-6.2,3.4-10.7,5.8-4.5,2.4-8.6,4.6-9.1,4.9s-3.2,1.9-6.2,3.5c-2.9,1.6-8.7,4.6-12.8,6.8-4.1,2.2-7.8,4.2-8.2,4.5-.5.3-4.7,2.7-9.5,5.2-7.8,4.1-14.1,7.5-28,15.2-2.5,1.4-9.7,5.3-16.1,8.7-10.2,5.4-21.4,11.5-34.6,18.8-2.3,1.2-7.5,4-11.5,6.2-4.1,2.2-11.3,6-16.1,8.6s-12.4,6.7-16.9,9.1c-4.5,2.4-8.8,4.7-9.6,5.2-.7.4-1.9.6-2.6.3-1.1-.4-1.3-3.8-1.4-25.9,0-14-.3-26.3-.6-27.4-.3-1.1-1.3-3-2.2-4-3.8-4.3-2.4-4.2-69.2-4.2h-58.9c-1.6,0-4.5,1.1-5.8,2.2l-.4.3c-1.6,1.4-3.3,3.9-3.9,5.6-.8,2.4-.9,17.7-.5,67.4l.5,64.3-1.8,1.7c-1,.9-5.9,3.8-10.9,6.4s-11.3,6-14,7.4c-2.7,1.5-7.5,4-10.7,5.7-11,5.9-29.2,15.8-41.6,22.7-3.9,2.1-9.4,5.2-12.4,6.8-2.9,1.6-7,3.8-9.1,4.9-2,1.1-7.4,4-11.9,6.4s-10.6,5.8-13.6,7.4-9.1,5-13.6,7.4-10.6,5.7-13.6,7.4c-6,3.4-14.7,8.2-21.4,11.7-2.5,1.3-4.9,2.7-5.4,3-.5.4-4.2,2.4-8.3,4.6-30.4,16.1-42.5,23-42.5,23.9s34.4.9,100.9,1l100.8.2,6.5-3.7c3.6-2,6.7-3.7,7-3.7s4.1-2,8.6-4.5c4.4-2.5,8.2-4.5,8.4-4.5s5.3-2.7,11.2-5.9c6-3.2,13.8-7.4,17.4-9.4s8.3-4.4,10.3-5.5c5.1-2.8,14.3-7.8,25.1-13.4,5-2.6,10.9-5.8,13.2-7,10.7-5.9,30.1-16.3,42.4-22.8,10.8-5.7,20.1-10.7,30.5-16.3,9.3-5,13.5-7.3,33.4-17.7,5.4-2.8,10.3-5.4,10.7-5.8.5-.3,5.3-2.9,10.7-5.8,5.4-2.9,11.6-6.1,13.6-7.2,2-1.1,7.1-3.8,11.3-6,11.8-6.2,23.3-12.3,27.8-14.7,2.3-1.2,7.8-4.2,12.4-6.6,14.7-7.7,22.2-11.7,26.4-14,2.3-1.2,7.8-4.2,12.4-6.6,4.5-2.4,10.8-5.7,14-7.4s10.2-5.4,15.7-8.2c5.4-2.8,11.9-6.3,14.4-7.6,8.5-4.6,14.4-7.8,23.5-12.6,5-2.6,10.9-5.8,13.2-7s8.9-4.7,14.8-7.8l10.6-5.6,5,2.7c2.8,1.5,9.3,4.9,14.5,7.7s12.1,6.3,15.2,8.1,8.2,4.4,11.1,5.9,12.2,6.5,20.6,11.1c8.4,4.5,18.6,10,22.7,12.2,4.1,2.2,9.3,5,11.5,6.2,2.3,1.2,8.9,4.8,14.8,7.9,5.9,3.1,12.4,6.6,14.4,7.8s5.9,3.2,8.7,4.5c2.7,1.3,5.9,3,7,3.8s6.5,3.7,11.9,6.6c5.4,2.9,11.2,5.9,12.8,6.8,3.2,1.8,19.5,10.7,27.4,14.9,6.2,3.3,14.1,7.6,24.5,13.3,4.3,2.4,11.2,6.1,15.2,8.3,4.1,2.2,15.6,8.4,25.5,13.8,21,11.4,48,26,55.2,29.8,6.3,3.3,15.3,8.2,20.6,11.2,2.3,1.3,6.5,3.6,9.5,5.1,5.2,2.8,13.1,7,23.9,12.8,2.9,1.6,6.1,3.3,7,3.9s4.1,2.3,7,3.9,11.1,6,18.1,9.9,15.9,8.7,19.8,10.7c3.9,2.1,9,4.9,11.4,6.3l4.4,2.6h101.8c56,0,102-.2,102.3-.5.9-.9-3.1-3.6-12.7-8.6-5.4-2.9-11-5.8-12.4-6.6s-5.1-2.8-8.2-4.5c-6.2-3.3-36.2-19.8-42.4-23.3-2-1.1-6.1-3.4-9.1-5-2.9-1.6-6.8-3.7-8.7-4.7-6.4-3.6-9.2-5.2-23.9-13.2-8.2-4.4-17.6-9.6-21-11.5-6.6-3.7-11.5-6.4-21.8-12-7.4-4-18.4-10-31.1-17-9.2-5-22.6-12.4-31.1-16.9-2.9-1.6-7-3.8-9.1-5s-10.8-5.9-19.4-10.5-16-8.7-16.5-9-4.5-2.6-9.1-5-9.4-5-10.7-5.8c-2.3-1.4-8.4-4.7-18.5-10.1-11.8-6.4-24.7-13.5-28.8-15.8-2.5-1.4-5.6-3.2-7-3.8s-4.1-2.2-6.2-3.3c-2-1.1-6.5-3.6-9.9-5.4-11.9-6.3-25.1-13.6-26-14.2-.5-.3-4.9-2.8-9.9-5.4s-9.4-5-9.9-5.4c-.5-.3-3.6-2.1-7-3.9s-10.3-5.5-15.2-8.2c-5-2.7-12.4-6.7-16.5-8.9-10.2-5.5-17.5-9.4-21.8-11.8-2-1.1-6.1-3.4-9.1-4.9s-7.4-4-9.9-5.4c-4.5-2.5-15.1-8.3-23.9-13.1-2.5-1.4-9.4-5.1-15.2-8.3-11.7-6.3-20.6-11.2-30.1-16.5-3.7-2.1-19.1-10.5-26.8-14.7-2.3-1.2-9.7-5.3-16.5-9.1-6.8-3.8-15.1-8.3-18.5-10-3.4-1.7-6.5-3.5-7-3.9s-3.7-2.2-7.1-4c-3.4-1.8-8.2-4.5-10.7-5.8C851.9,1.1,849.3,0,848.6,0s-3.1.9-5.3,2.1M626.8,288.2c-4.4.3-8.4.9-8.9,1.3-.9.9,3.6,17.3,15.2,56,2.6,8.6,5.8,19.5,7.1,24.2s3.1,10.6,3.9,13.2,2.3,7.4,3.3,10.8,2.1,7.1,2.5,8.2,1.5,4.8,2.5,8.2c1,3.4,2.7,9.1,3.7,12.8,5.1,17.1,15.3,51.9,22.9,77.9l2.8,9.5,40.9.2,40.9.2.8-2.7c.7-2.3,4-14.3,14.6-53.8.7-2.7,1.8-6.6,2.4-8.7s1.7-6.1,2.5-9.1,2-7.2,2.6-9.5,3.2-11.5,5.6-20.6c6.5-24,7.2-26.3,7.9-27.1.7-.8,3.3,7.3,6.9,21.3,5.4,21,8.7,33.4,10.8,40.8.6,2,2.2,8.3,3.7,14,1.4,5.7,3.1,12,3.7,14,.6,2,2.3,8.3,3.7,14,2.7,10.6,3.7,14.3,6.1,22.5l1.4,4.7h39.9c37.1,0,39.9,0,40.6-1.4.4-.8,2.3-6.8,4.2-13.4,3.8-13.3,5.2-17.8,7-23.9.7-2.3,1.8-6.1,2.5-8.4,2.7-9.2,3.6-12.3,4.8-16.1.7-2.1,1.8-5.8,2.4-8,12.2-40.5,19.2-63.5,20.5-67.2.4-1.2,1.6-5.3,2.7-9.1,1.6-5.8,11.5-38.9,14.6-48.5,1.9-6,3-9.6,4.4-14.4.8-2.7,2-6.3,2.6-8.1,1-2.8,1-3.2-.3-3.7-.8-.3-17.9-.6-38.1-.6s-37.1.2-38.4,1c-1.4.8-2.3,3.2-4.4,12.4-1.4,6.2-3.1,13.6-3.7,16.3-.6,2.7-1.8,7.7-2.5,11.1s-1.9,8.4-2.5,11.1-2.1,9.6-3.3,15.2c-1.2,5.7-2.6,12.5-3.3,15.2-2.2,9.1-12,52.1-12,52.6,0,1.4-1.5.3-1.9-1.4-.2-1-1.9-7.2-3.7-13.8s-4.3-15.7-5.5-20.2-2.8-10.3-3.4-12.8c-.7-2.5-2.6-10.1-4.4-16.9-9-35.2-12.4-48.7-14.4-57.7-1.2-5.4-2.4-10.3-2.5-10.8-.4-1.5-9.3-2-35.3-1.9-26,0-38.7.8-40.1,2.2-.5.5-4.3,14.9-8.6,32.1-13.4,54.1-15.8,63.9-18.9,75.7-1.7,6.3-3.3,12.6-3.7,14-1.7,6.7-3.5,11.9-4.1,11.9-.9,0-3-7.6-6.3-23.5-2.8-13.2-7.2-33.4-9.8-44.5-.6-2.7-2.3-9.9-3.7-16.1s-3.1-13.3-3.7-16.1c-.9-3.9-5.2-23-7.4-33-.3-1.6-1.2-1.8-7.9-2.3-8.8-.6-50.3-.5-61.8.2M1004.4,289c-1.3,2.4-2.6,81.2-2.6,155.7v66.1h173v-55.2h-93.9v-31.3h88.2v-25.5c0-14,0-25.6-.2-25.6s-19.6-.4-43.3-.7c-23.7-.4-43.2-.8-43.4-1-.2-.2-.6-5.8-.9-12.5l-.6-12.2h92.3l.4-14.2c.3-9.6,0-14.5-.5-15.2-.5-.5-7.6-4.6-15.7-9-8.2-4.4-20-10.8-26.4-14.3l-11.5-6.3-57-.2c-54.9-.2-57-.2-57.8,1.3M578.3,298.4c-7,4.7-17.9,12.1-24.2,16.4-22.6,15.5-48.8,30.3-78.3,44.2-30.3,14.3-73.4,32.3-99.1,41.4-5.6,2-10.1,3.8-10.1,4.1,0,1,107.5,1.8,162.7,1.2,49-.5,63.1-1,64.1-2.2.7-.8-.9-111-1.7-112.3-.7-1.2-2.4-.3-13.5,7.1M1267.9,385.4c-8.4,3.1-14,8.8-16.7,17-1.2,3.7-1.4,22.6-1.4,231.3v227.2h21.9c16.8,0,21.9-.2,22.2-1,.2-.6.7-5.5,1.2-10.9,1.4-17.4,5.9-32.7,14.2-48.8,6.8-13.2,14.2-23.1,25.7-34.4,26.1-25.7,61-39.9,97.8-39.9s21.8,1.4,30.1,3.2c40.2,8.7,76.1,36.2,93.9,72.2,9,18.2,13.6,35.5,14.6,55.6l.2,3.7,36.2.2c40.5.2,40.4.3,47.8-5.4,2.3-1.7,5.2-4.8,6.5-6.9l2.4-3.8v-69.9c0-90.4,3-77.7-31.2-134-11.6-19.1-24.1-39.7-27.8-45.8s-11.5-18.9-17.3-28.4-12.5-20.6-15-24.7-7.9-13-12-19.8-9.8-16.3-12.8-21-6-9.8-6.8-11.1c-.8-1.4-5.5-9.1-10.5-17.3-8.7-14.2-22.2-36.4-36.1-59.3-9.6-15.8-16.8-22-31.3-26.9l-7-2.4h-92.4c-84.3.1-92.8.2-96.2,1.5M517.8,435.2c-4.8.1-26.6.6-48.6,1.1-55.3,1.2-68.2,2-110,6.3-51.6,5.3-74.1,5.7-131,16.7-6.1,1.2-11.7,2.3-12.5,2.6-.7.2-3.3.8-5.8,1.2-4.1.7-16.8,3.3-41.9,8.6-8.8,1.9-66.2,13.3-79.9,16-4,.8-3.6.8,4.1.5,62.2-3,309.7-2.4,332.4.9,29.6,4.2,64.9,13.7,90.6,24.5,27.8,11.6,48.9,24.8,68.4,42.6,4.5,4.1,8.7,7.5,9.3,7.5.9,0,1-12.2.6-64.9-.3-35.7-1.1-62.3-1.2-62.9-.2-.8-7.5-1-33.1-.9-18,0-36.7.3-41.4.4M1440.1,437.4c4.4,1.2,10.4,5.4,12.8,8.8,2.2,3.3,9.5,15,31.2,50.9,7.1,11.8,20.4,33.7,29.5,48.6,27.1,44.6,34.3,56.8,34.3,58.2,0,3.5-3.7,3.9-12.8,1.2-2.3-.7-7.6-2.2-11.9-3.3-18.8-5.1-23-6.2-28.8-7.8-3.4-.9-7.5-2.1-9.1-2.5s-4.9-1.4-7.4-2.1c-2.5-.7-11.4-3.1-19.8-5.4-8.4-2.3-17.3-4.7-19.8-5.4s-5.8-1.6-7.4-2.1c-1.6-.4-5.7-1.6-9.1-2.5s-9.7-2.6-14-3.8c-9.9-2.6-11.7-3.1-17.7-4.8-2.7-.8-6.1-1.7-7.4-2.1-1.4-.4-4.7-1.3-7.4-2-2.7-.8-8.3-2.3-12.4-3.4-4.1-1.1-10.9-3-15.2-4.1-4.3-1.2-8.9-2.4-10.3-2.8s-4.7-1.3-7.4-2.1c-5.4-1.5-13-3.6-15.8-4.3-1-.2-3.3-1.7-5-3.2-6.2-5.3-5.9-3.2-5.9-52.8s0-44.6,1.4-46.4c1.6-2.4,4.1-4.3,6.4-5,2.8-.9,125.7-.8,129,.1M631.9,579.8c0,26.6.2,101,.5,165.2l.5,116.8h87.6l.5-16.7c.3-9.2.7-48.2,1-86.7s.6-70.5.8-71.1c.5-1.4,1.5,0,24.2,29.1,10.6,13.6,22.1,28.4,25.6,33,3.5,4.5,14.9,19.2,25.3,32.5,10.4,13.4,21.9,28.2,25.7,33,3.7,4.8,9,11.4,11.7,14.8,2.7,3.4,7.1,9,9.8,12.4s7.2,9,9.9,12.5,5.8,6.9,6.8,7.6c1.6,1.1,7.4,1.3,45.7,1.3s44.4-.2,45.1-.5c1.2-.5,1.3-15.8,1.3-166v-165.5h-92.1l.5,93.5c.3,62.3.2,93.5-.4,93.5s-16.3-19.3-40.2-50.3c-7.2-9.3-15.7-20.2-18.9-24.3s-11.3-14.6-18-23.3-17.4-22.8-23.9-31.3-19-25-27.7-36.7l-15.9-21.2h-85.5v48.4M996,696.1c0,130.9.2,164.9,1,165.4,1.4.9,124.7,1.4,169.3.6l35.6-.6.3-38c0-20.9,0-38.3-.3-38.7-.6-.8-33.2-1.9-81.2-2.7l-34-.6v-49.2h113.7v-77.2l-32.3-.5c-17.8-.3-43.4-1-57-1.5l-24.6-1.1.6-21c.3-11.6.8-21.2,1-21.4s26.9-.6,59.3-.8l58.9-.3v-77.2h-210.1v164.7M256.6,576.3c-9.6,1.4-93.5,13.6-144.2,21-21.8,3.1-47.1,6.8-56.4,8.2s-27.1,4-39.5,5.8c-12.5,1.8-23.6,3.5-24.7,3.8-1.9.5-2,.6-.4,1.2.9.4,12,2.2,24.7,4,12.7,1.8,42.3,6.1,65.9,9.5s46.5,6.7,51.1,7.4,26.2,3.8,48.2,7c54.8,8,57.8,8.4,58.2,8s1.3-4.4,2.4-9.3c4.3-19,11.1-37.7,20.6-56.3,2.9-5.7,5.3-10.7,5.3-11,0-.7-2.3-.6-11.1.8M234.4,754.7c-2.3.4-10.8,1.7-18.9,2.8-43.9,6.2-81.3,11.8-81.7,12.2-.8.8,2.1,1.3,31.4,5.5,15.9,2.3,41.9,6,57.9,8.3s29.3,4,29.4,3.8c.2-.2-.8-3.5-2.2-7.3s-3.8-11.2-5.3-16.4c-3.1-10.6-2.8-10.4-10.7-9M1417.5,765.1c-31.9,4.9-59.3,24.1-74.4,52.2-7.2,13.4-10.3,26.3-10.3,43.3s1,19.2,4.9,30.9c7,20.9,23.1,40,43.8,52.1,2.9,1.7,5.4,3.1,5.6,3.1s2.3.9,4.6,2c13.1,6,24.4,8.3,41,8.2,15.2,0,27.8-2.3,38.3-6.9,13.8-6.1,22.9-11.9,32-20.5,23-21.9,33.8-53,28.9-83.2-.7-4.4-1.6-8.7-1.9-9.6-.4-.9-1.3-3.9-2.2-6.6-1.8-5.7-8.3-18.7-11.6-23.3-1.3-1.7-2.7-3.6-3.1-4.3-2.6-3.6-16.4-16.8-21.1-20-20.8-14.6-49.3-21.3-74.5-17.4"/>
        <path id="CompoundPath_1-2" data-name="CompoundPath 1-2" class="cls-3" d="M262.7,695c0-22.3,5.4-47.7,13.4-66.8,8.1-19.3,22.2-40.1,36.6-54.6,14.5-14.5,35.2-28.7,54.4-36.9,19.1-8.1,44.5-13.6,66.7-13.6s47.6,5.4,66.7,13.6c19.2,8.2,39.9,22.3,54.4,36.9,14.4,14.5,28.5,35.3,36.6,54.6,8.1,19.2,13.4,44.6,13.4,66.8s-5.4,47.7-13.4,66.8c-8.1,19.3-22.2,40.1-36.6,54.6-14.5,14.5-35.2,28.7-54.4,36.9-19.1,8.1-44.5,13.6-66.7,13.6s-47.6-5.4-66.7-13.6c-19.2-8.2-39.9-22.3-54.4-36.9-14.4-14.5-28.5-35.3-36.6-54.6-8.1-19.2-13.4-44.6-13.4-66.8h0ZM354.3,728.9c4.9,11.7,9.7,18.8,18.6,27.7,8.8,8.9,15.9,13.7,27.4,18.6,11.7,5,20.2,6.8,33.5,6.8s21.8-1.8,33.5-6.8c11.6-4.9,18.6-9.7,27.4-18.6,8.8-8.9,13.7-16,18.6-27.7,5-11.8,6.8-20.5,6.8-33.9s-1.8-22.1-6.8-33.9c-4.9-11.7-9.7-18.8-18.6-27.7-8.8-8.9-15.9-13.7-27.4-18.6-11.7-5-20.2-6.8-33.5-6.8s-21.8,1.8-33.5,6.8c-11.6,4.9-18.6,9.7-27.4,18.6-8.8,8.9-13.7,16-18.6,27.7-5,11.8-6.8,20.5-6.8,33.9s1.8,22.1,6.8,33.9Z"/>
      </g>
    </g>
  </g>
</svg>